<mxfile host="app.diagrams.net" agent="Mozilla/5.0 (Macintosh; Intel Mac OS X 10_15_7) AppleWebKit/605.1.15 (KHTML, like Gecko) Version/17.4.1 Safari/605.1.15" version="24.7.10">
  <diagram name="Page-1" id="J0Dl2C9NBDgtXITPT6Fh">
    <mxGraphModel dx="2291" dy="613" grid="1" gridSize="10" guides="1" tooltips="1" connect="1" arrows="1" fold="1" page="1" pageScale="1" pageWidth="1169" pageHeight="827" math="0" shadow="0">
      <root>
        <mxCell id="0" />
        <mxCell id="1" parent="0" />
        <mxCell id="W-MlJIcmKjAAyfEWoJ3Q-3" value="Start" style="rounded=1;whiteSpace=wrap;html=1;fillColor=#ffe6cc;strokeColor=#d79b00;" parent="1" vertex="1">
          <mxGeometry x="-30" y="217.5" width="61" height="35" as="geometry" />
        </mxCell>
        <mxCell id="W-MlJIcmKjAAyfEWoJ3Q-7" value="Sales Manager fills the MIS form and the relevant fields to be captured in form 1A (data as received by the agent through call/ mail etc)" style="rounded=0;whiteSpace=wrap;html=1;" parent="1" vertex="1">
          <mxGeometry x="275" y="455" width="170" height="100" as="geometry" />
        </mxCell>
        <mxCell id="W-MlJIcmKjAAyfEWoJ3Q-9" value="SM identifies and selects the type of Agent assigned (CRM Dropdown value)" style="rounded=0;whiteSpace=wrap;html=1;" parent="1" vertex="1">
          <mxGeometry x="407" y="257.5" width="100" height="74" as="geometry" />
        </mxCell>
        <mxCell id="W-MlJIcmKjAAyfEWoJ3Q-10" value="" style="endArrow=classic;html=1;rounded=0;entryX=0;entryY=0.5;entryDx=0;entryDy=0;exitX=1;exitY=0.5;exitDx=0;exitDy=0;" parent="1" source="NBfsZXymPOGGM7-1zEKC-3" target="W-MlJIcmKjAAyfEWoJ3Q-9" edge="1">
          <mxGeometry width="50" height="50" relative="1" as="geometry">
            <mxPoint x="430" y="280" as="sourcePoint" />
            <mxPoint x="277" y="314" as="targetPoint" />
          </mxGeometry>
        </mxCell>
        <mxCell id="W-MlJIcmKjAAyfEWoJ3Q-11" value="POSP" style="rounded=0;whiteSpace=wrap;html=1;" parent="1" vertex="1">
          <mxGeometry x="329" y="376" width="62" height="26" as="geometry" />
        </mxCell>
        <mxCell id="W-MlJIcmKjAAyfEWoJ3Q-12" value="IC38" style="rounded=0;whiteSpace=wrap;html=1;" parent="1" vertex="1">
          <mxGeometry x="433" y="376" width="48" height="26" as="geometry" />
        </mxCell>
        <mxCell id="W-MlJIcmKjAAyfEWoJ3Q-13" value="Composite" style="rounded=0;whiteSpace=wrap;html=1;" parent="1" vertex="1">
          <mxGeometry x="530" y="376" width="70" height="26" as="geometry" />
        </mxCell>
        <mxCell id="W-MlJIcmKjAAyfEWoJ3Q-36" value="" style="endArrow=classic;html=1;rounded=0;exitX=0.5;exitY=1;exitDx=0;exitDy=0;entryX=0.5;entryY=0;entryDx=0;entryDy=0;" parent="1" source="W-MlJIcmKjAAyfEWoJ3Q-9" target="W-MlJIcmKjAAyfEWoJ3Q-11" edge="1">
          <mxGeometry width="50" height="50" relative="1" as="geometry">
            <mxPoint x="472" y="329" as="sourcePoint" />
            <mxPoint x="522" y="279" as="targetPoint" />
            <Array as="points">
              <mxPoint x="457" y="350" />
              <mxPoint x="360" y="350" />
            </Array>
          </mxGeometry>
        </mxCell>
        <mxCell id="W-MlJIcmKjAAyfEWoJ3Q-37" value="" style="endArrow=classic;html=1;rounded=0;exitX=0.5;exitY=1;exitDx=0;exitDy=0;entryX=0.5;entryY=0;entryDx=0;entryDy=0;" parent="1" source="W-MlJIcmKjAAyfEWoJ3Q-9" target="W-MlJIcmKjAAyfEWoJ3Q-12" edge="1">
          <mxGeometry width="50" height="50" relative="1" as="geometry">
            <mxPoint x="472" y="329" as="sourcePoint" />
            <mxPoint x="522" y="279" as="targetPoint" />
            <Array as="points">
              <mxPoint x="457" y="359" />
            </Array>
          </mxGeometry>
        </mxCell>
        <mxCell id="W-MlJIcmKjAAyfEWoJ3Q-38" value="" style="endArrow=classic;html=1;rounded=0;exitX=0.5;exitY=1;exitDx=0;exitDy=0;entryX=0.5;entryY=0;entryDx=0;entryDy=0;" parent="1" source="W-MlJIcmKjAAyfEWoJ3Q-9" target="W-MlJIcmKjAAyfEWoJ3Q-13" edge="1">
          <mxGeometry width="50" height="50" relative="1" as="geometry">
            <mxPoint x="472" y="329" as="sourcePoint" />
            <mxPoint x="522" y="279" as="targetPoint" />
            <Array as="points">
              <mxPoint x="457" y="350" />
              <mxPoint x="565" y="350" />
            </Array>
          </mxGeometry>
        </mxCell>
        <mxCell id="0TxoYsAdlca8F8hX1XT_-1" value="End" style="rounded=1;whiteSpace=wrap;html=1;fillColor=#ffe6cc;strokeColor=#d79b00;" parent="1" vertex="1">
          <mxGeometry x="849" y="331.5" width="70" height="35" as="geometry" />
        </mxCell>
        <mxCell id="NBfsZXymPOGGM7-1zEKC-1" value="Potential agents details imported into CRM through manual data upload by Sales Managers" style="rounded=0;whiteSpace=wrap;html=1;" parent="1" vertex="1">
          <mxGeometry x="100" y="256.5" width="120" height="75" as="geometry" />
        </mxCell>
        <mxCell id="NBfsZXymPOGGM7-1zEKC-3" value="All the agents uploaded by SM is mapped to the respective individual" style="rounded=0;whiteSpace=wrap;html=1;" parent="1" vertex="1">
          <mxGeometry x="265" y="264" width="120" height="60" as="geometry" />
        </mxCell>
        <mxCell id="NBfsZXymPOGGM7-1zEKC-6" value="" style="endArrow=classic;html=1;rounded=0;exitX=1;exitY=0.5;exitDx=0;exitDy=0;entryX=0;entryY=0.5;entryDx=0;entryDy=0;" parent="1" source="NBfsZXymPOGGM7-1zEKC-1" target="NBfsZXymPOGGM7-1zEKC-3" edge="1">
          <mxGeometry width="50" height="50" relative="1" as="geometry">
            <mxPoint x="270" y="360" as="sourcePoint" />
            <mxPoint x="320" y="310" as="targetPoint" />
          </mxGeometry>
        </mxCell>
        <mxCell id="NBfsZXymPOGGM7-1zEKC-7" value="" style="endArrow=classic;html=1;rounded=0;exitX=0.5;exitY=1;exitDx=0;exitDy=0;entryX=0.5;entryY=0;entryDx=0;entryDy=0;" parent="1" source="W-MlJIcmKjAAyfEWoJ3Q-11" target="W-MlJIcmKjAAyfEWoJ3Q-7" edge="1">
          <mxGeometry width="50" height="50" relative="1" as="geometry">
            <mxPoint x="510" y="450" as="sourcePoint" />
            <mxPoint x="560" y="400" as="targetPoint" />
          </mxGeometry>
        </mxCell>
        <mxCell id="NBfsZXymPOGGM7-1zEKC-10" value="&lt;b&gt;&lt;u&gt;CRM Validation:&lt;/u&gt;&lt;/b&gt;&lt;div&gt;1. Provision to save the application data as a draft is required as many info about the agents might not be available immediately.&lt;/div&gt;&lt;div&gt;2. Only after all the mandatory fields are filled in the application, the process should move to the next stage (&amp;nbsp;&lt;span style=&quot;background-color: rgb(255, 64, 255);&quot;&gt;D2&lt;/span&gt;)&lt;/div&gt;&lt;div&gt;3. Provision to upload the documents in CRM (No. of upload features)&lt;/div&gt;" style="shape=document;whiteSpace=wrap;html=1;boundedLbl=1;" parent="1" vertex="1">
          <mxGeometry x="12" y="417.81" width="240" height="174.38" as="geometry" />
        </mxCell>
        <mxCell id="NBfsZXymPOGGM7-1zEKC-11" value="" style="endArrow=classic;html=1;rounded=0;exitX=1;exitY=0.5;exitDx=0;exitDy=0;entryX=0;entryY=0.5;entryDx=0;entryDy=0;" parent="1" source="NBfsZXymPOGGM7-1zEKC-10" target="W-MlJIcmKjAAyfEWoJ3Q-7" edge="1">
          <mxGeometry width="50" height="50" relative="1" as="geometry">
            <mxPoint x="250" y="520" as="sourcePoint" />
            <mxPoint x="300" y="470" as="targetPoint" />
          </mxGeometry>
        </mxCell>
        <mxCell id="NBfsZXymPOGGM7-1zEKC-13" value="" style="endArrow=classic;html=1;rounded=0;exitX=0.5;exitY=1;exitDx=0;exitDy=0;entryX=0.5;entryY=0;entryDx=0;entryDy=0;" parent="1" source="W-MlJIcmKjAAyfEWoJ3Q-7" target="ldtcaKF831ZHqJrmhCyH-25" edge="1">
          <mxGeometry width="50" height="50" relative="1" as="geometry">
            <mxPoint x="360" y="603.1199999999999" as="sourcePoint" />
            <mxPoint x="360" y="606.8699999999999" as="targetPoint" />
          </mxGeometry>
        </mxCell>
        <mxCell id="NBfsZXymPOGGM7-1zEKC-14" value="Agent to provide the consent to start the onboarding (OTP based)" style="rounded=0;whiteSpace=wrap;html=1;" parent="1" vertex="1">
          <mxGeometry x="300" y="700" width="120" height="60" as="geometry" />
        </mxCell>
        <mxCell id="NBfsZXymPOGGM7-1zEKC-15" value="&lt;b&gt;&lt;u&gt;CRM Validation:&lt;/u&gt;&lt;/b&gt;&lt;div&gt;Integration with SMS/ Email gateway, already ready as confirmed by Galaxy - &lt;span style=&quot;background-color: rgb(255, 251, 0);&quot;&gt;I3&lt;/span&gt;&lt;/div&gt;" style="shape=document;whiteSpace=wrap;html=1;boundedLbl=1;" parent="1" vertex="1">
          <mxGeometry x="76" y="680" width="180" height="100" as="geometry" />
        </mxCell>
        <mxCell id="NBfsZXymPOGGM7-1zEKC-16" value="" style="endArrow=classic;html=1;rounded=0;exitX=1;exitY=0.5;exitDx=0;exitDy=0;entryX=0;entryY=0.5;entryDx=0;entryDy=0;" parent="1" source="NBfsZXymPOGGM7-1zEKC-15" target="NBfsZXymPOGGM7-1zEKC-14" edge="1">
          <mxGeometry width="50" height="50" relative="1" as="geometry">
            <mxPoint x="250" y="670" as="sourcePoint" />
            <mxPoint x="300" y="620" as="targetPoint" />
          </mxGeometry>
        </mxCell>
        <mxCell id="NBfsZXymPOGGM7-1zEKC-17" value="" style="endArrow=classic;html=1;rounded=0;exitX=0.5;exitY=1;exitDx=0;exitDy=0;entryX=0.5;entryY=0;entryDx=0;entryDy=0;" parent="1" source="ldtcaKF831ZHqJrmhCyH-25" target="NBfsZXymPOGGM7-1zEKC-14" edge="1">
          <mxGeometry width="50" height="50" relative="1" as="geometry">
            <mxPoint x="360" y="656.8699999999999" as="sourcePoint" />
            <mxPoint x="300" y="620" as="targetPoint" />
          </mxGeometry>
        </mxCell>
        <mxCell id="NBfsZXymPOGGM7-1zEKC-18" value="&lt;u&gt;Decision on collection of payment from the agents&lt;/u&gt;&lt;div&gt;Option to be provided in CRM&lt;/div&gt;&lt;div&gt;a. Fee collection flow&lt;/div&gt;&lt;div&gt;b. Waived off flow&lt;/div&gt;" style="rounded=0;whiteSpace=wrap;html=1;" parent="1" vertex="1">
          <mxGeometry x="265" y="790" width="190" height="80" as="geometry" />
        </mxCell>
        <mxCell id="NBfsZXymPOGGM7-1zEKC-19" value="" style="endArrow=classic;html=1;rounded=0;exitX=0.5;exitY=1;exitDx=0;exitDy=0;entryX=0.5;entryY=0;entryDx=0;entryDy=0;" parent="1" source="NBfsZXymPOGGM7-1zEKC-14" target="NBfsZXymPOGGM7-1zEKC-18" edge="1">
          <mxGeometry width="50" height="50" relative="1" as="geometry">
            <mxPoint x="250" y="750" as="sourcePoint" />
            <mxPoint x="300" y="700" as="targetPoint" />
          </mxGeometry>
        </mxCell>
        <mxCell id="NBfsZXymPOGGM7-1zEKC-20" value="" style="endArrow=classic;html=1;rounded=0;entryX=0.5;entryY=0;entryDx=0;entryDy=0;exitX=0.5;exitY=1;exitDx=0;exitDy=0;" parent="1" source="NBfsZXymPOGGM7-1zEKC-18" target="w_etyACIegaJ3iJ-0LxL-7" edge="1">
          <mxGeometry width="50" height="50" relative="1" as="geometry">
            <mxPoint x="250" y="890" as="sourcePoint" />
            <mxPoint x="350" y="920" as="targetPoint" />
            <Array as="points">
              <mxPoint x="360" y="900" />
              <mxPoint x="240" y="900" />
            </Array>
          </mxGeometry>
        </mxCell>
        <mxCell id="NBfsZXymPOGGM7-1zEKC-25" value="Fee collection&lt;div&gt;flow&lt;/div&gt;" style="edgeLabel;html=1;align=center;verticalAlign=middle;resizable=0;points=[];" parent="NBfsZXymPOGGM7-1zEKC-20" vertex="1" connectable="0">
          <mxGeometry x="0.2383" y="-1" relative="1" as="geometry">
            <mxPoint x="18" y="1" as="offset" />
          </mxGeometry>
        </mxCell>
        <mxCell id="NBfsZXymPOGGM7-1zEKC-24" value="SM&#39;s submits the application form" style="rounded=0;whiteSpace=wrap;html=1;" parent="1" vertex="1">
          <mxGeometry x="418" y="930" width="103" height="40" as="geometry" />
        </mxCell>
        <mxCell id="NBfsZXymPOGGM7-1zEKC-26" value="" style="endArrow=classic;html=1;rounded=0;exitX=0.5;exitY=1;exitDx=0;exitDy=0;entryX=0.5;entryY=0;entryDx=0;entryDy=0;" parent="1" source="NBfsZXymPOGGM7-1zEKC-18" target="NBfsZXymPOGGM7-1zEKC-24" edge="1">
          <mxGeometry width="50" height="50" relative="1" as="geometry">
            <mxPoint x="230" y="920" as="sourcePoint" />
            <mxPoint x="280" y="870" as="targetPoint" />
            <Array as="points">
              <mxPoint x="360" y="900" />
              <mxPoint x="470" y="900" />
            </Array>
          </mxGeometry>
        </mxCell>
        <mxCell id="NBfsZXymPOGGM7-1zEKC-27" value="Waived off&lt;div&gt;flow&lt;/div&gt;" style="edgeLabel;html=1;align=center;verticalAlign=middle;resizable=0;points=[];" parent="NBfsZXymPOGGM7-1zEKC-26" vertex="1" connectable="0">
          <mxGeometry x="-0.0069" y="-1" relative="1" as="geometry">
            <mxPoint as="offset" />
          </mxGeometry>
        </mxCell>
        <mxCell id="NBfsZXymPOGGM7-1zEKC-28" value="SM&#39;s submits the application form" style="rounded=0;whiteSpace=wrap;html=1;" parent="1" vertex="1">
          <mxGeometry x="300" y="1010" width="103" height="40" as="geometry" />
        </mxCell>
        <mxCell id="NBfsZXymPOGGM7-1zEKC-34" value="Application moved to business coder &amp;nbsp;team for checking (Round robin based allocation)" style="rounded=0;whiteSpace=wrap;html=1;" parent="1" vertex="1">
          <mxGeometry x="674" y="915" width="120" height="70" as="geometry" />
        </mxCell>
        <mxCell id="NBfsZXymPOGGM7-1zEKC-35" value="&lt;u&gt;&lt;b&gt;CRM Validation:&lt;/b&gt;&lt;/u&gt;&lt;div&gt;Moved to this stage only on below 2 possibilities&lt;/div&gt;&lt;div&gt;1. Agent&#39;s payment is waived off by SM and SM submits the application&lt;/div&gt;&lt;div&gt;(or)&lt;/div&gt;&lt;div&gt;2. SM enters the payment details and SM submits the application.&lt;/div&gt;" style="shape=document;whiteSpace=wrap;html=1;boundedLbl=1;" parent="1" vertex="1">
          <mxGeometry x="505" y="1010" width="200" height="170" as="geometry" />
        </mxCell>
        <mxCell id="NBfsZXymPOGGM7-1zEKC-36" value="" style="endArrow=classic;html=1;rounded=0;exitX=0.5;exitY=0;exitDx=0;exitDy=0;entryX=0.5;entryY=1;entryDx=0;entryDy=0;" parent="1" source="NBfsZXymPOGGM7-1zEKC-35" target="NBfsZXymPOGGM7-1zEKC-49" edge="1">
          <mxGeometry width="50" height="50" relative="1" as="geometry">
            <mxPoint x="744" y="1020" as="sourcePoint" />
            <mxPoint x="584" y="1000" as="targetPoint" />
          </mxGeometry>
        </mxCell>
        <mxCell id="NBfsZXymPOGGM7-1zEKC-37" value="" style="endArrow=classic;html=1;rounded=0;exitX=1;exitY=0.5;exitDx=0;exitDy=0;entryX=0;entryY=0.5;entryDx=0;entryDy=0;" parent="1" source="NBfsZXymPOGGM7-1zEKC-24" target="NBfsZXymPOGGM7-1zEKC-49" edge="1">
          <mxGeometry width="50" height="50" relative="1" as="geometry">
            <mxPoint x="410" y="1050" as="sourcePoint" />
            <mxPoint x="560" y="950" as="targetPoint" />
          </mxGeometry>
        </mxCell>
        <mxCell id="NBfsZXymPOGGM7-1zEKC-40" value="Approve" style="rounded=0;whiteSpace=wrap;html=1;" parent="1" vertex="1">
          <mxGeometry x="854" y="860" width="60" height="30" as="geometry" />
        </mxCell>
        <mxCell id="NBfsZXymPOGGM7-1zEKC-41" value="Reject" style="rounded=0;whiteSpace=wrap;html=1;" parent="1" vertex="1">
          <mxGeometry x="854" y="910" width="60" height="30" as="geometry" />
        </mxCell>
        <mxCell id="NBfsZXymPOGGM7-1zEKC-42" value="Raise a query" style="rounded=0;whiteSpace=wrap;html=1;" parent="1" vertex="1">
          <mxGeometry x="849" y="970" width="70" height="30" as="geometry" />
        </mxCell>
        <mxCell id="NBfsZXymPOGGM7-1zEKC-44" value="" style="endArrow=classic;html=1;rounded=0;exitX=1;exitY=0.5;exitDx=0;exitDy=0;entryX=0;entryY=0.5;entryDx=0;entryDy=0;" parent="1" source="NBfsZXymPOGGM7-1zEKC-34" target="NBfsZXymPOGGM7-1zEKC-40" edge="1">
          <mxGeometry width="50" height="50" relative="1" as="geometry">
            <mxPoint x="694" y="1010" as="sourcePoint" />
            <mxPoint x="744" y="960" as="targetPoint" />
            <Array as="points">
              <mxPoint x="824" y="950" />
              <mxPoint x="824" y="875" />
            </Array>
          </mxGeometry>
        </mxCell>
        <mxCell id="NBfsZXymPOGGM7-1zEKC-45" value="" style="endArrow=classic;html=1;rounded=0;exitX=1;exitY=0.5;exitDx=0;exitDy=0;entryX=0;entryY=0.5;entryDx=0;entryDy=0;" parent="1" source="NBfsZXymPOGGM7-1zEKC-34" target="NBfsZXymPOGGM7-1zEKC-41" edge="1">
          <mxGeometry width="50" height="50" relative="1" as="geometry">
            <mxPoint x="694" y="1010" as="sourcePoint" />
            <mxPoint x="744" y="960" as="targetPoint" />
            <Array as="points">
              <mxPoint x="824" y="950" />
              <mxPoint x="824" y="925" />
            </Array>
          </mxGeometry>
        </mxCell>
        <mxCell id="NBfsZXymPOGGM7-1zEKC-46" value="" style="endArrow=classic;html=1;rounded=0;exitX=1;exitY=0.5;exitDx=0;exitDy=0;entryX=0;entryY=0.5;entryDx=0;entryDy=0;" parent="1" source="NBfsZXymPOGGM7-1zEKC-34" target="NBfsZXymPOGGM7-1zEKC-42" edge="1">
          <mxGeometry width="50" height="50" relative="1" as="geometry">
            <mxPoint x="694" y="1010" as="sourcePoint" />
            <mxPoint x="744" y="960" as="targetPoint" />
            <Array as="points">
              <mxPoint x="824" y="950" />
              <mxPoint x="824" y="985" />
            </Array>
          </mxGeometry>
        </mxCell>
        <mxCell id="NBfsZXymPOGGM7-1zEKC-47" value="End" style="rounded=1;whiteSpace=wrap;html=1;fillColor=#ffe6cc;strokeColor=#d79b00;" parent="1" vertex="1">
          <mxGeometry x="950" y="912.5" width="56" height="25" as="geometry" />
        </mxCell>
        <mxCell id="NBfsZXymPOGGM7-1zEKC-48" value="" style="endArrow=classic;html=1;rounded=0;exitX=1;exitY=0.5;exitDx=0;exitDy=0;entryX=0;entryY=0.5;entryDx=0;entryDy=0;" parent="1" source="NBfsZXymPOGGM7-1zEKC-41" target="NBfsZXymPOGGM7-1zEKC-47" edge="1">
          <mxGeometry width="50" height="50" relative="1" as="geometry">
            <mxPoint x="804" y="1010" as="sourcePoint" />
            <mxPoint x="854" y="960" as="targetPoint" />
          </mxGeometry>
        </mxCell>
        <mxCell id="NBfsZXymPOGGM7-1zEKC-49" value="Create Temp ID" style="rounded=0;whiteSpace=wrap;html=1;" parent="1" vertex="1">
          <mxGeometry x="570" y="930" width="70" height="40" as="geometry" />
        </mxCell>
        <mxCell id="NBfsZXymPOGGM7-1zEKC-50" value="" style="endArrow=classic;html=1;rounded=0;exitX=1;exitY=0.5;exitDx=0;exitDy=0;entryX=0;entryY=0.5;entryDx=0;entryDy=0;" parent="1" source="NBfsZXymPOGGM7-1zEKC-49" target="NBfsZXymPOGGM7-1zEKC-34" edge="1">
          <mxGeometry width="50" height="50" relative="1" as="geometry">
            <mxPoint x="680" y="1010" as="sourcePoint" />
            <mxPoint x="730" y="960" as="targetPoint" />
          </mxGeometry>
        </mxCell>
        <mxCell id="NBfsZXymPOGGM7-1zEKC-51" value="The format of this ID to be defined - &lt;span style=&quot;background-color: rgb(255, 64, 255);&quot;&gt;D3&lt;/span&gt;" style="shape=document;whiteSpace=wrap;html=1;boundedLbl=1;" parent="1" vertex="1">
          <mxGeometry x="541" y="862" width="120" height="45" as="geometry" />
        </mxCell>
        <mxCell id="NBfsZXymPOGGM7-1zEKC-54" value="" style="endArrow=classic;html=1;rounded=0;entryX=0.5;entryY=0;entryDx=0;entryDy=0;exitX=0.537;exitY=0.808;exitDx=0;exitDy=0;exitPerimeter=0;" parent="1" source="NBfsZXymPOGGM7-1zEKC-51" target="NBfsZXymPOGGM7-1zEKC-49" edge="1">
          <mxGeometry width="50" height="50" relative="1" as="geometry">
            <mxPoint x="605" y="890" as="sourcePoint" />
            <mxPoint x="730" y="960" as="targetPoint" />
          </mxGeometry>
        </mxCell>
        <mxCell id="NBfsZXymPOGGM7-1zEKC-55" value="New task created by the admin to the relevant assigned SM&#39;s to get back on the query regarding the agent - Query template to be shared &lt;span style=&quot;background-color: rgb(255, 64, 255);&quot;&gt;(D5)&lt;/span&gt;" style="rounded=0;whiteSpace=wrap;html=1;" parent="1" vertex="1">
          <mxGeometry x="973" y="1050" width="170" height="80" as="geometry" />
        </mxCell>
        <mxCell id="NBfsZXymPOGGM7-1zEKC-56" value="" style="endArrow=classic;html=1;rounded=0;exitX=1;exitY=0.5;exitDx=0;exitDy=0;entryX=0.5;entryY=0;entryDx=0;entryDy=0;" parent="1" source="NBfsZXymPOGGM7-1zEKC-42" target="NBfsZXymPOGGM7-1zEKC-55" edge="1">
          <mxGeometry width="50" height="50" relative="1" as="geometry">
            <mxPoint x="770" y="1040" as="sourcePoint" />
            <mxPoint x="820" y="990" as="targetPoint" />
            <Array as="points">
              <mxPoint x="1058" y="985" />
            </Array>
          </mxGeometry>
        </mxCell>
        <mxCell id="NBfsZXymPOGGM7-1zEKC-57" value="CRM Validation:&lt;div&gt;1. Task notification triggered to the respective SM&lt;/div&gt;&lt;div&gt;2. Reminder notifications and frequency of notifications to be decided -&amp;nbsp;&lt;span style=&quot;background-color: rgb(255, 64, 255);&quot;&gt;D4&lt;/span&gt;&lt;/div&gt;" style="shape=document;whiteSpace=wrap;html=1;boundedLbl=1;" parent="1" vertex="1">
          <mxGeometry x="760" y="1030" width="170" height="120" as="geometry" />
        </mxCell>
        <mxCell id="NBfsZXymPOGGM7-1zEKC-58" value="" style="endArrow=classic;html=1;rounded=0;exitX=1;exitY=0.5;exitDx=0;exitDy=0;entryX=0;entryY=0.5;entryDx=0;entryDy=0;" parent="1" source="NBfsZXymPOGGM7-1zEKC-57" target="NBfsZXymPOGGM7-1zEKC-55" edge="1">
          <mxGeometry width="50" height="50" relative="1" as="geometry">
            <mxPoint x="910" y="1040" as="sourcePoint" />
            <mxPoint x="960" y="990" as="targetPoint" />
          </mxGeometry>
        </mxCell>
        <mxCell id="NBfsZXymPOGGM7-1zEKC-59" value="SM reviews, acts and resolves the task" style="rounded=0;whiteSpace=wrap;html=1;" parent="1" vertex="1">
          <mxGeometry x="998" y="1160" width="120" height="60" as="geometry" />
        </mxCell>
        <mxCell id="NBfsZXymPOGGM7-1zEKC-60" value="" style="endArrow=classic;html=1;rounded=0;exitX=0.5;exitY=1;exitDx=0;exitDy=0;entryX=0.5;entryY=0;entryDx=0;entryDy=0;" parent="1" source="NBfsZXymPOGGM7-1zEKC-55" target="NBfsZXymPOGGM7-1zEKC-59" edge="1">
          <mxGeometry width="50" height="50" relative="1" as="geometry">
            <mxPoint x="980" y="1100" as="sourcePoint" />
            <mxPoint x="1030" y="1050" as="targetPoint" />
          </mxGeometry>
        </mxCell>
        <mxCell id="NBfsZXymPOGGM7-1zEKC-61" value="Notification sent back to Admin" style="rounded=0;whiteSpace=wrap;html=1;" parent="1" vertex="1">
          <mxGeometry x="1162" y="1160" width="120" height="60" as="geometry" />
        </mxCell>
        <mxCell id="NBfsZXymPOGGM7-1zEKC-62" value="" style="endArrow=classic;html=1;rounded=0;exitX=1;exitY=0.5;exitDx=0;exitDy=0;entryX=0;entryY=0.5;entryDx=0;entryDy=0;" parent="1" source="NBfsZXymPOGGM7-1zEKC-59" target="NBfsZXymPOGGM7-1zEKC-61" edge="1">
          <mxGeometry width="50" height="50" relative="1" as="geometry">
            <mxPoint x="970" y="1260" as="sourcePoint" />
            <mxPoint x="1020" y="1210" as="targetPoint" />
          </mxGeometry>
        </mxCell>
        <mxCell id="NBfsZXymPOGGM7-1zEKC-63" value="" style="endArrow=classic;html=1;rounded=0;exitX=0.5;exitY=0;exitDx=0;exitDy=0;entryX=1;entryY=0.5;entryDx=0;entryDy=0;" parent="1" source="NBfsZXymPOGGM7-1zEKC-61" target="NBfsZXymPOGGM7-1zEKC-40" edge="1">
          <mxGeometry width="50" height="50" relative="1" as="geometry">
            <mxPoint x="970" y="1080" as="sourcePoint" />
            <mxPoint x="1190" y="910" as="targetPoint" />
            <Array as="points">
              <mxPoint x="1222" y="875" />
            </Array>
          </mxGeometry>
        </mxCell>
        <mxCell id="NBfsZXymPOGGM7-1zEKC-64" value="Admin approves" style="edgeLabel;html=1;align=center;verticalAlign=middle;resizable=0;points=[];" parent="NBfsZXymPOGGM7-1zEKC-63" vertex="1" connectable="0">
          <mxGeometry x="0.466" relative="1" as="geometry">
            <mxPoint as="offset" />
          </mxGeometry>
        </mxCell>
        <mxCell id="NBfsZXymPOGGM7-1zEKC-65" value="" style="endArrow=classic;html=1;rounded=0;exitX=0.5;exitY=0;exitDx=0;exitDy=0;entryX=1;entryY=0.5;entryDx=0;entryDy=0;" parent="1" source="NBfsZXymPOGGM7-1zEKC-61" target="NBfsZXymPOGGM7-1zEKC-47" edge="1">
          <mxGeometry width="50" height="50" relative="1" as="geometry">
            <mxPoint x="970" y="1090" as="sourcePoint" />
            <mxPoint x="1020" y="1040" as="targetPoint" />
            <Array as="points">
              <mxPoint x="1222" y="925" />
            </Array>
          </mxGeometry>
        </mxCell>
        <mxCell id="NBfsZXymPOGGM7-1zEKC-66" value="Admin rejects" style="edgeLabel;html=1;align=center;verticalAlign=middle;resizable=0;points=[];" parent="NBfsZXymPOGGM7-1zEKC-65" vertex="1" connectable="0">
          <mxGeometry x="0.5253" relative="1" as="geometry">
            <mxPoint as="offset" />
          </mxGeometry>
        </mxCell>
        <mxCell id="NBfsZXymPOGGM7-1zEKC-67" value="The relevant details which needs to be shared by coders to Training Institute shall be made visible to the 1 user with custom role profile which will be created for a member at Training Institute." style="rounded=0;whiteSpace=wrap;html=1;" parent="1" vertex="1">
          <mxGeometry x="792" y="751" width="184" height="90" as="geometry" />
        </mxCell>
        <mxCell id="NBfsZXymPOGGM7-1zEKC-68" value="" style="endArrow=classic;html=1;rounded=0;entryX=0.5;entryY=1;entryDx=0;entryDy=0;exitX=0.5;exitY=0;exitDx=0;exitDy=0;" parent="1" source="NBfsZXymPOGGM7-1zEKC-40" target="NBfsZXymPOGGM7-1zEKC-67" edge="1">
          <mxGeometry width="50" height="50" relative="1" as="geometry">
            <mxPoint x="880" y="900" as="sourcePoint" />
            <mxPoint x="930" y="850" as="targetPoint" />
          </mxGeometry>
        </mxCell>
        <mxCell id="NBfsZXymPOGGM7-1zEKC-69" value="Training Institute uploads the Training completion certificate (TCC) , updates training status in CRM against each unique PAN no. post completion of the training of the respective agents" style="rounded=0;whiteSpace=wrap;html=1;" parent="1" vertex="1">
          <mxGeometry x="774.25" y="650" width="219.5" height="80" as="geometry" />
        </mxCell>
        <mxCell id="NBfsZXymPOGGM7-1zEKC-70" value="" style="endArrow=classic;html=1;rounded=0;exitX=0.5;exitY=0;exitDx=0;exitDy=0;entryX=0.5;entryY=1;entryDx=0;entryDy=0;" parent="1" source="NBfsZXymPOGGM7-1zEKC-67" target="NBfsZXymPOGGM7-1zEKC-69" edge="1">
          <mxGeometry width="50" height="50" relative="1" as="geometry">
            <mxPoint x="880" y="780" as="sourcePoint" />
            <mxPoint x="930" y="730" as="targetPoint" />
          </mxGeometry>
        </mxCell>
        <mxCell id="NBfsZXymPOGGM7-1zEKC-71" value="&lt;u&gt;CRM Validation:&lt;/u&gt;&lt;div&gt;1 user with custom role profile to be created for the Institute to have only upload document &amp;nbsp;feature against each PAN mapped to agent name&amp;nbsp;&lt;/div&gt;" style="shape=document;whiteSpace=wrap;html=1;boundedLbl=1;" parent="1" vertex="1">
          <mxGeometry x="1030" y="645" width="200" height="90" as="geometry" />
        </mxCell>
        <mxCell id="NBfsZXymPOGGM7-1zEKC-72" value="" style="endArrow=classic;html=1;rounded=0;exitX=0;exitY=0.5;exitDx=0;exitDy=0;entryX=1;entryY=0.5;entryDx=0;entryDy=0;" parent="1" source="NBfsZXymPOGGM7-1zEKC-71" target="NBfsZXymPOGGM7-1zEKC-69" edge="1">
          <mxGeometry width="50" height="50" relative="1" as="geometry">
            <mxPoint x="940" y="780" as="sourcePoint" />
            <mxPoint x="990" y="730" as="targetPoint" />
          </mxGeometry>
        </mxCell>
        <mxCell id="NBfsZXymPOGGM7-1zEKC-102" value="1. Agent ID creation in CRM&lt;div&gt;2. Appointment letter generation - &lt;span style=&quot;background-color: rgb(255, 64, 255);&quot;&gt;(D14)&lt;/span&gt;&lt;/div&gt;&lt;div&gt;&lt;span style=&quot;background-color: rgb(255, 255, 255);&quot;&gt;3. Appointment acceptance consent&lt;/span&gt;&lt;span style=&quot;background-color: rgb(255, 64, 255);&quot;&gt;&lt;br&gt;&lt;/span&gt;&lt;/div&gt;" style="rounded=0;whiteSpace=wrap;html=1;" parent="1" vertex="1">
          <mxGeometry x="814" y="530" width="140" height="90" as="geometry" />
        </mxCell>
        <mxCell id="NBfsZXymPOGGM7-1zEKC-107" value="1. Confirmation sent to SM&#39;s on successful onboarding&lt;div&gt;2. Confirmation sent to Agent along with agent ID &amp;amp; appointment letter through mail.&lt;/div&gt;" style="rounded=0;whiteSpace=wrap;html=1;" parent="1" vertex="1">
          <mxGeometry x="783.5" y="390" width="201" height="85" as="geometry" />
        </mxCell>
        <mxCell id="NBfsZXymPOGGM7-1zEKC-111" value="" style="endArrow=classic;html=1;rounded=0;exitX=0.5;exitY=0;exitDx=0;exitDy=0;entryX=0.5;entryY=1;entryDx=0;entryDy=0;" parent="1" source="NBfsZXymPOGGM7-1zEKC-107" target="0TxoYsAdlca8F8hX1XT_-1" edge="1">
          <mxGeometry width="50" height="50" relative="1" as="geometry">
            <mxPoint x="900" y="280" as="sourcePoint" />
            <mxPoint x="884" y="360" as="targetPoint" />
          </mxGeometry>
        </mxCell>
        <mxCell id="NBfsZXymPOGGM7-1zEKC-118" value="" style="endArrow=classic;html=1;rounded=0;exitX=0.5;exitY=1;exitDx=0;exitDy=0;entryX=0.5;entryY=0;entryDx=0;entryDy=0;" parent="1" source="W-MlJIcmKjAAyfEWoJ3Q-12" target="NBfsZXymPOGGM7-1zEKC-120" edge="1">
          <mxGeometry width="50" height="50" relative="1" as="geometry">
            <mxPoint x="500" y="490" as="sourcePoint" />
            <mxPoint x="570" y="490" as="targetPoint" />
            <Array as="points">
              <mxPoint x="457" y="440" />
              <mxPoint x="565" y="440" />
            </Array>
          </mxGeometry>
        </mxCell>
        <mxCell id="NBfsZXymPOGGM7-1zEKC-119" value="" style="endArrow=classic;html=1;rounded=0;exitX=0.5;exitY=1;exitDx=0;exitDy=0;" parent="1" source="W-MlJIcmKjAAyfEWoJ3Q-13" target="NBfsZXymPOGGM7-1zEKC-120" edge="1">
          <mxGeometry width="50" height="50" relative="1" as="geometry">
            <mxPoint x="500" y="490" as="sourcePoint" />
            <mxPoint x="620" y="450" as="targetPoint" />
          </mxGeometry>
        </mxCell>
        <mxCell id="NBfsZXymPOGGM7-1zEKC-120" value="Shown in separate flow" style="rounded=0;whiteSpace=wrap;html=1;" parent="1" vertex="1">
          <mxGeometry x="505" y="475" width="120" height="60" as="geometry" />
        </mxCell>
        <mxCell id="w_etyACIegaJ3iJ-0LxL-4" value="" style="endArrow=classic;html=1;rounded=0;exitX=0.5;exitY=0;exitDx=0;exitDy=0;entryX=0.5;entryY=1;entryDx=0;entryDy=0;" parent="1" source="NBfsZXymPOGGM7-1zEKC-102" target="NBfsZXymPOGGM7-1zEKC-107" edge="1">
          <mxGeometry width="50" height="50" relative="1" as="geometry">
            <mxPoint x="1080" y="150" as="sourcePoint" />
            <mxPoint x="1130" y="100" as="targetPoint" />
          </mxGeometry>
        </mxCell>
        <mxCell id="5jaLFaHSJ5tQYmdGjiN3-1" value="Outbound API&lt;div&gt;to TCS Bancs -&amp;nbsp;&lt;span style=&quot;background-color: rgb(255, 251, 0);&quot;&gt;I4&lt;/span&gt;&lt;/div&gt;" style="edgeLabel;html=1;align=center;verticalAlign=middle;resizable=0;points=[];" parent="w_etyACIegaJ3iJ-0LxL-4" vertex="1" connectable="0">
          <mxGeometry x="0.0981" y="3" relative="1" as="geometry">
            <mxPoint y="2" as="offset" />
          </mxGeometry>
        </mxCell>
        <mxCell id="w_etyACIegaJ3iJ-0LxL-7" value="Date of the receipt, Receipt No, GL No to be captured in CRM by SM manually." style="rounded=0;whiteSpace=wrap;html=1;" parent="1" vertex="1">
          <mxGeometry x="155" y="930" width="170" height="60" as="geometry" />
        </mxCell>
        <mxCell id="w_etyACIegaJ3iJ-0LxL-10" value="Notification triggers to follow up on the coder team on TCC (not obtained agents)&amp;nbsp;" style="rounded=0;whiteSpace=wrap;html=1;" parent="1" vertex="1">
          <mxGeometry x="541" y="660" width="154" height="60" as="geometry" />
        </mxCell>
        <mxCell id="w_etyACIegaJ3iJ-0LxL-12" value="" style="endArrow=classic;html=1;rounded=0;exitX=0;exitY=0.5;exitDx=0;exitDy=0;" parent="1" source="NBfsZXymPOGGM7-1zEKC-69" target="w_etyACIegaJ3iJ-0LxL-10" edge="1">
          <mxGeometry width="50" height="50" relative="1" as="geometry">
            <mxPoint x="790" y="710" as="sourcePoint" />
            <mxPoint x="840" y="660" as="targetPoint" />
          </mxGeometry>
        </mxCell>
        <mxCell id="w_etyACIegaJ3iJ-0LxL-13" value="TCC not&lt;div&gt;received&lt;/div&gt;" style="edgeLabel;html=1;align=center;verticalAlign=middle;resizable=0;points=[];" parent="w_etyACIegaJ3iJ-0LxL-12" vertex="1" connectable="0">
          <mxGeometry x="-0.1272" relative="1" as="geometry">
            <mxPoint x="-5" as="offset" />
          </mxGeometry>
        </mxCell>
        <mxCell id="w_etyACIegaJ3iJ-0LxL-14" value="Frequency of notifications to be decided &lt;span style=&quot;background-color: rgb(255, 64, 255);&quot;&gt;D7&lt;/span&gt;" style="shape=document;whiteSpace=wrap;html=1;boundedLbl=1;" parent="1" vertex="1">
          <mxGeometry x="570" y="580" width="90" height="60" as="geometry" />
        </mxCell>
        <mxCell id="w_etyACIegaJ3iJ-0LxL-15" value="" style="endArrow=classic;html=1;rounded=0;entryX=0.5;entryY=0;entryDx=0;entryDy=0;exitX=0.533;exitY=0.797;exitDx=0;exitDy=0;exitPerimeter=0;" parent="1" source="w_etyACIegaJ3iJ-0LxL-14" target="w_etyACIegaJ3iJ-0LxL-10" edge="1">
          <mxGeometry width="50" height="50" relative="1" as="geometry">
            <mxPoint x="700" y="560" as="sourcePoint" />
            <mxPoint x="740" y="590" as="targetPoint" />
          </mxGeometry>
        </mxCell>
        <mxCell id="4YgFnqij_w7Lyt54d9Wa-1" value="" style="endArrow=classic;html=1;rounded=0;exitX=1;exitY=0.5;exitDx=0;exitDy=0;entryX=0;entryY=0.5;entryDx=0;entryDy=0;" parent="1" source="W-MlJIcmKjAAyfEWoJ3Q-3" target="NBfsZXymPOGGM7-1zEKC-1" edge="1">
          <mxGeometry width="50" height="50" relative="1" as="geometry">
            <mxPoint x="140" y="310" as="sourcePoint" />
            <mxPoint x="190" y="260" as="targetPoint" />
            <Array as="points">
              <mxPoint x="70" y="235" />
              <mxPoint x="70" y="294" />
            </Array>
          </mxGeometry>
        </mxCell>
        <mxCell id="4YgFnqij_w7Lyt54d9Wa-3" value="" style="rounded=0;whiteSpace=wrap;html=1;fillColor=#f8cecc;strokeColor=#b85450;" parent="1" vertex="1">
          <mxGeometry x="256" y="1190" width="44" height="20" as="geometry" />
        </mxCell>
        <mxCell id="4YgFnqij_w7Lyt54d9Wa-4" value="Outside CRM" style="text;html=1;align=center;verticalAlign=middle;whiteSpace=wrap;rounded=0;" parent="1" vertex="1">
          <mxGeometry x="303" y="1186" width="82" height="30" as="geometry" />
        </mxCell>
        <mxCell id="4YgFnqij_w7Lyt54d9Wa-5" value="" style="rounded=0;whiteSpace=wrap;html=1;" parent="1" vertex="1">
          <mxGeometry x="433" y="1190" width="44" height="20" as="geometry" />
        </mxCell>
        <mxCell id="4YgFnqij_w7Lyt54d9Wa-6" value="Within CRM" style="text;html=1;align=center;verticalAlign=middle;whiteSpace=wrap;rounded=0;" parent="1" vertex="1">
          <mxGeometry x="482" y="1186" width="82" height="30" as="geometry" />
        </mxCell>
        <mxCell id="4YgFnqij_w7Lyt54d9Wa-7" value="&lt;span style=&quot;background-color: rgb(255, 64, 255);&quot;&gt;Text&lt;/span&gt;" style="text;html=1;align=center;verticalAlign=middle;whiteSpace=wrap;rounded=0;" parent="1" vertex="1">
          <mxGeometry x="590" y="1185" width="60" height="30" as="geometry" />
        </mxCell>
        <mxCell id="4YgFnqij_w7Lyt54d9Wa-8" value="Dependency from Galaxy" style="text;html=1;align=center;verticalAlign=middle;whiteSpace=wrap;rounded=0;" parent="1" vertex="1">
          <mxGeometry x="635" y="1185" width="82" height="30" as="geometry" />
        </mxCell>
        <mxCell id="4YgFnqij_w7Lyt54d9Wa-9" value="&lt;span style=&quot;background-color: rgb(255, 251, 0);&quot;&gt;Text&lt;/span&gt;" style="text;html=1;align=center;verticalAlign=middle;whiteSpace=wrap;rounded=0;" parent="1" vertex="1">
          <mxGeometry x="755" y="1186" width="60" height="30" as="geometry" />
        </mxCell>
        <mxCell id="4YgFnqij_w7Lyt54d9Wa-10" value="Interface with CRM" style="text;html=1;align=center;verticalAlign=middle;whiteSpace=wrap;rounded=0;" parent="1" vertex="1">
          <mxGeometry x="806" y="1185" width="82" height="30" as="geometry" />
        </mxCell>
        <mxCell id="ldtcaKF831ZHqJrmhCyH-1" value="&lt;u&gt;Status dashboard to be shown for coder team managers:&lt;/u&gt;&lt;div&gt;No. of application moved to coder team. (Count, time) - Visible to coder team managers&lt;/div&gt;" style="shape=document;whiteSpace=wrap;html=1;boundedLbl=1;" parent="1" vertex="1">
          <mxGeometry x="577" y="750" width="184.25" height="100" as="geometry" />
        </mxCell>
        <mxCell id="ldtcaKF831ZHqJrmhCyH-2" value="" style="endArrow=classic;html=1;rounded=0;entryX=0.5;entryY=0;entryDx=0;entryDy=0;exitX=0.619;exitY=0.76;exitDx=0;exitDy=0;exitPerimeter=0;" parent="1" source="ldtcaKF831ZHqJrmhCyH-1" target="NBfsZXymPOGGM7-1zEKC-34" edge="1">
          <mxGeometry width="50" height="50" relative="1" as="geometry">
            <mxPoint x="550" y="760" as="sourcePoint" />
            <mxPoint x="860" y="930" as="targetPoint" />
            <Array as="points">
              <mxPoint x="691" y="870" />
              <mxPoint x="734" y="870" />
            </Array>
          </mxGeometry>
        </mxCell>
        <mxCell id="ldtcaKF831ZHqJrmhCyH-3" value="" style="endArrow=classic;html=1;rounded=0;exitX=0.5;exitY=0;exitDx=0;exitDy=0;entryX=0.5;entryY=0;entryDx=0;entryDy=0;" parent="1" source="NBfsZXymPOGGM7-1zEKC-61" target="NBfsZXymPOGGM7-1zEKC-42" edge="1">
          <mxGeometry width="50" height="50" relative="1" as="geometry">
            <mxPoint x="950" y="1050" as="sourcePoint" />
            <mxPoint x="1000" y="1000" as="targetPoint" />
            <Array as="points">
              <mxPoint x="1222" y="950" />
              <mxPoint x="884" y="950" />
            </Array>
          </mxGeometry>
        </mxCell>
        <mxCell id="ldtcaKF831ZHqJrmhCyH-4" value="Admin raises a query again" style="edgeLabel;html=1;align=center;verticalAlign=middle;resizable=0;points=[];" parent="ldtcaKF831ZHqJrmhCyH-3" vertex="1" connectable="0">
          <mxGeometry x="0.1397" y="1" relative="1" as="geometry">
            <mxPoint as="offset" />
          </mxGeometry>
        </mxCell>
        <mxCell id="ldtcaKF831ZHqJrmhCyH-10" value="" style="endArrow=classic;html=1;rounded=0;exitX=0.5;exitY=1;exitDx=0;exitDy=0;entryX=0;entryY=0.5;entryDx=0;entryDy=0;" parent="1" source="w_etyACIegaJ3iJ-0LxL-7" target="NBfsZXymPOGGM7-1zEKC-28" edge="1">
          <mxGeometry width="50" height="50" relative="1" as="geometry">
            <mxPoint x="310" y="860" as="sourcePoint" />
            <mxPoint x="360" y="810" as="targetPoint" />
            <Array as="points">
              <mxPoint x="240" y="1030" />
            </Array>
          </mxGeometry>
        </mxCell>
        <mxCell id="ldtcaKF831ZHqJrmhCyH-11" value="" style="endArrow=classic;html=1;rounded=0;exitX=1;exitY=0.5;exitDx=0;exitDy=0;entryX=0;entryY=0.5;entryDx=0;entryDy=0;" parent="1" source="NBfsZXymPOGGM7-1zEKC-28" target="NBfsZXymPOGGM7-1zEKC-49" edge="1">
          <mxGeometry width="50" height="50" relative="1" as="geometry">
            <mxPoint x="310" y="860" as="sourcePoint" />
            <mxPoint x="360" y="810" as="targetPoint" />
            <Array as="points">
              <mxPoint x="460" y="1030" />
              <mxPoint x="460" y="990" />
              <mxPoint x="540" y="990" />
              <mxPoint x="540" y="950" />
            </Array>
          </mxGeometry>
        </mxCell>
        <mxCell id="ldtcaKF831ZHqJrmhCyH-14" value="Fields needs to be visible to Institute - To be decided - &lt;span style=&quot;background-color: rgb(255, 64, 255);&quot;&gt;&amp;nbsp;D6&lt;/span&gt;" style="shape=document;whiteSpace=wrap;html=1;boundedLbl=1;" parent="1" vertex="1">
          <mxGeometry x="1016" y="763.5" width="127" height="65" as="geometry" />
        </mxCell>
        <mxCell id="ldtcaKF831ZHqJrmhCyH-15" value="" style="endArrow=classic;html=1;rounded=0;exitX=0;exitY=0.5;exitDx=0;exitDy=0;entryX=1;entryY=0.5;entryDx=0;entryDy=0;" parent="1" source="ldtcaKF831ZHqJrmhCyH-14" target="NBfsZXymPOGGM7-1zEKC-67" edge="1">
          <mxGeometry width="50" height="50" relative="1" as="geometry">
            <mxPoint x="880" y="780" as="sourcePoint" />
            <mxPoint x="930" y="730" as="targetPoint" />
          </mxGeometry>
        </mxCell>
        <mxCell id="ldtcaKF831ZHqJrmhCyH-20" value="Leads flow through webforms from Galaxy&#39;s corporate website -&amp;nbsp;&lt;span style=&quot;background-color: rgb(255, 251, 0);&quot;&gt;I1&lt;/span&gt;" style="rounded=0;whiteSpace=wrap;html=1;" parent="1" vertex="1">
          <mxGeometry x="110" y="157.5" width="120" height="60" as="geometry" />
        </mxCell>
        <mxCell id="ldtcaKF831ZHqJrmhCyH-21" value="SM allocated based on leads originated regions/zones" style="rounded=0;whiteSpace=wrap;html=1;" parent="1" vertex="1">
          <mxGeometry x="275" y="157.5" width="120" height="60" as="geometry" />
        </mxCell>
        <mxCell id="ldtcaKF831ZHqJrmhCyH-22" value="" style="endArrow=classic;html=1;rounded=0;exitX=1;exitY=0.5;exitDx=0;exitDy=0;entryX=0;entryY=0.5;entryDx=0;entryDy=0;" parent="1" source="ldtcaKF831ZHqJrmhCyH-20" target="ldtcaKF831ZHqJrmhCyH-21" edge="1">
          <mxGeometry width="50" height="50" relative="1" as="geometry">
            <mxPoint x="270" y="340" as="sourcePoint" />
            <mxPoint x="320" y="290" as="targetPoint" />
          </mxGeometry>
        </mxCell>
        <mxCell id="ldtcaKF831ZHqJrmhCyH-23" value="Region, logic and user profiles of SM&#39;s to be shared - &lt;span style=&quot;background-color: rgb(255, 64, 255);&quot;&gt;D1&lt;/span&gt;" style="shape=document;whiteSpace=wrap;html=1;boundedLbl=1;" parent="1" vertex="1">
          <mxGeometry x="281" y="70" width="120" height="60" as="geometry" />
        </mxCell>
        <mxCell id="ldtcaKF831ZHqJrmhCyH-24" value="" style="endArrow=classic;html=1;rounded=0;entryX=0.5;entryY=0;entryDx=0;entryDy=0;exitX=0.456;exitY=0.879;exitDx=0;exitDy=0;exitPerimeter=0;" parent="1" source="ldtcaKF831ZHqJrmhCyH-23" target="ldtcaKF831ZHqJrmhCyH-21" edge="1">
          <mxGeometry width="50" height="50" relative="1" as="geometry">
            <mxPoint x="420" y="110" as="sourcePoint" />
            <mxPoint x="310" y="140" as="targetPoint" />
          </mxGeometry>
        </mxCell>
        <mxCell id="ldtcaKF831ZHqJrmhCyH-25" value="KYC validatation by SM&#39;s through integration -&amp;nbsp;&lt;span style=&quot;background-color: rgb(255, 251, 0);&quot;&gt;I2&lt;/span&gt;" style="rounded=0;whiteSpace=wrap;html=1;" parent="1" vertex="1">
          <mxGeometry x="270" y="600" width="180" height="60" as="geometry" />
        </mxCell>
        <mxCell id="ldtcaKF831ZHqJrmhCyH-26" value="" style="endArrow=classic;html=1;rounded=0;exitX=0.5;exitY=0;exitDx=0;exitDy=0;entryX=0.5;entryY=1;entryDx=0;entryDy=0;" parent="1" source="NBfsZXymPOGGM7-1zEKC-69" target="NBfsZXymPOGGM7-1zEKC-102" edge="1">
          <mxGeometry width="50" height="50" relative="1" as="geometry">
            <mxPoint x="1389.9999999999995" y="227.5" as="sourcePoint" />
            <mxPoint x="1550" y="66" as="targetPoint" />
          </mxGeometry>
        </mxCell>
        <mxCell id="LyLIEj7PnTEQsNUxyE-x-1" value="" style="endArrow=classic;html=1;rounded=0;entryX=0;entryY=0.5;entryDx=0;entryDy=0;exitX=1;exitY=0.5;exitDx=0;exitDy=0;" parent="1" source="W-MlJIcmKjAAyfEWoJ3Q-3" target="ldtcaKF831ZHqJrmhCyH-20" edge="1">
          <mxGeometry width="50" height="50" relative="1" as="geometry">
            <mxPoint x="260" y="340" as="sourcePoint" />
            <mxPoint x="310" y="290" as="targetPoint" />
            <Array as="points">
              <mxPoint x="70" y="235" />
              <mxPoint x="70" y="188" />
            </Array>
          </mxGeometry>
        </mxCell>
        <mxCell id="LyLIEj7PnTEQsNUxyE-x-2" value="" style="endArrow=classic;html=1;rounded=0;entryX=0.5;entryY=0;entryDx=0;entryDy=0;exitX=1;exitY=0.5;exitDx=0;exitDy=0;" parent="1" source="ldtcaKF831ZHqJrmhCyH-21" target="W-MlJIcmKjAAyfEWoJ3Q-9" edge="1">
          <mxGeometry width="50" height="50" relative="1" as="geometry">
            <mxPoint x="330" y="340" as="sourcePoint" />
            <mxPoint x="380" y="290" as="targetPoint" />
            <Array as="points">
              <mxPoint x="457" y="188" />
            </Array>
          </mxGeometry>
        </mxCell>
      </root>
    </mxGraphModel>
  </diagram>
</mxfile>
